inDegrees=yes
name=t4_motion.mot
DataType=double
version=3
OpenSimVersion=4.4-2022-07-23-0e9fedc
endheader
time	pelvis_tilt	pelvis_list	pelvis_rotation	pelvis_tx	pelvis_ty	pelvis_tz	hip_flexion_r	hip_adduction_r	hip_rotation_r	knee_angle_r	knee_angle_r_beta	ankle_angle_r	subtalar_angle_r	mtp_angle_r	hip_flexion_l	hip_adduction_l	hip_rotation_l	knee_angle_l	knee_angle_l_beta	ankle_angle_l	subtalar_angle_l	mtp_angle_l	lumbar_extension	lumbar_bending	lumbar_rotation	arm_flex_r	arm_add_r	arm_rot_r	elbow_flex_r	pro_sup_r	wrist_flex_r	wrist_dev_r	arm_flex_l	arm_add_l	arm_rot_l	elbow_flex_l	pro_sup_l	wrist_flex_l	wrist_dev_l
7.80895209312439	0	0	0	0	0.93	0	7.198296663870179	-1.37928893255666	-0.8915829989748967	9.522184041858244	0.1661934635112879	0	0	0	0	0	0	1.321449341084274e-38	9.672872138937754e-41	0	0	0	0	0	0	0	0	0	0	1.052357267868557e-38	0	0	0	0	0	0	0	0	0
7.824962139129639	1.099541328487364e-32	-9.674389052157292e-16	-1.379226013295508e-31	-8.31654015728063e-17	0.93	8.134118035839011e-17	9.06099935963991	0.2699674257054143	0.02180755955528737	0.03994106845726936	0.0006971031513438023	1.949264235215041e-23	1.112992469582097e-24	-3.132621605028742e-25	-1.838580277868491e-38	-3.504792561862898e-21	1.723497601012476e-31	5.377047814735806e-10	9.384718840526174e-12	-4.731862383066631e-25	4.20886387766949e-25	4.02954893409568e-25	6.770786085430626e-15	0	3.298704290748107e-15	-1.367763189323925e-26	1.914509060477304e-23	-5.018829943554983e-23	5.377047819926082e-10	5.377047806233923e-10	-1.257895824805474e-18	5.852629455294853e-20	-9.36204958463933e-23	1.409275636038076e-24	2.453161215581268e-23	5.377047819925741e-10	5.377047806232877e-10	-4.761860310826214e-16	-3.64103151334232e-19
7.835964918136597	0	0	0	0	0.93	0	10.4057225806109	0.7515870759290646	-0.07563755903120824	0.02065324824338096	0.000360467183078733	0	0	0	0	0	0	0	7.739206109037751e-41	0	0	0	0	0	0	0	0	0	3.884141822292994e-39	0	0	0	0	0	0	3.884141822292994e-39	0	0	0
7.845959901809692	0	7.758819664541295e-34	3.448364295351686e-34	0	0.93	0	11.07078095186034	0.8496422445732459	-0.103464880563044	0.01670630400167929	0.0002915800106684078	0	0	0	0	0	0	0	0	0	0	0	0	0	0	0	0	0	0	0	0	0	0	0	0	0	0	0	0
7.868997812271118	0	0	0	0	0.93	0	12.94071539781662	1.448761622279821	0.01149037766400134	0.01101669558015375	0.0001922776105635899	0	0	0	0	0	0	0	0	0	0	0	0	0	0	0	0	0	0	0	0	0	0	0	0	0	0	0	0
7.87795615196228	-3.207942023706926e-31	-6.018210346659732e-14	-3.681638692635121e-31	1.986403390247789e-16	0.93	-1.049812755528342e-15	14.63647907785369	1.886989681371897	0.2364221909990817	0.008475310930166709	0.0001479220808616723	8.993665910578231e-15	5.192350898098749e-14	-1.654932170957794e-14	4.018051685092985e-33	1.933733716292355e-16	0	2.079422815575943e-07	3.629277463901913e-09	-7.681964974773227e-15	2.278894293152081e-15	1.467919645308792e-14	-5.490154719581284e-19	1.691074207848879e-43	1.412450015376051e-30	-1.590199943724423e-14	6.328383990201075e-19	-4.684013773169683e-16	2.079422801965023e-07	2.079422838339569e-07	-1.596228889762137e-12	1.530297794085733e-15	4.120084506720998e-15	-5.871234239841609e-14	-2.384085127210179e-14	2.079422801964928e-07	2.079422838337252e-07	-1.015202051556257e-13	-4.510186231367572e-15
7.893959999084473	-4.61288297496852e-34	0	-8.840854274479413e-36	0	0.93	0	17.61255386176683	2.472257947795798	0.5922217890821917	0.00598623708548254	0.0001044795469466596	0	0	0	-6.299365386984827e-36	-4.041051908615258e-36	0	0	0	0	0	0	0	0	0	0	0	0	0	0	0	2.155227684594804e-35	0	0	0	0	0	0	1.077613842297402e-35
7.90195894241333	-1.202534173394155e-28	9.818004838073467e-29	7.821807992375183e-29	1.063720362823331e-16	0.9299999999999999	-1.531094967329584e-19	18.86662675753508	2.417516455191317	0.6208944538944605	0.005270626946727861	9.198979386473842e-05	-6.946158290949258e-14	3.335954175401775e-13	-3.591118275302074e-14	-2.412468866884308e-13	2.87772771599076e-14	6.78184828364194e-12	1.019036773215512e-06	1.778547779275958e-08	-8.487924809987514e-16	1.167384746182513e-13	2.720853981307998e-17	8.418636162174339e-12	3.341694154965991e-12	7.389063616058954e-12	-5.991239443276507e-12	1.485446886371948e-13	4.257603934133734e-14	1.019018647882259e-06	1.019029339992673e-06	1.631077674013933e-14	-2.141109034575065e-18	4.665214815746523e-14	9.48117352277354e-14	1.723412930680838e-13	1.019031605616474e-06	1.01902677333196e-06	-2.11677696040147e-14	1.122818671835094e-18
7.926951885223389	0	0	0	0	0.93	0	19.49651097086398	2.355645638493633	0.6629731175612215	0.005024809401262926	8.769946833720296e-05	0	0	0	0	0	0	0	0	0	0	0	0	0	0	0	0	0	0	0	0	0	0	0	0	0	0	0	0
